<?xml version="1.0" encoding="UTF-8"?>
<svg id="Capa_1" xmlns="http://www.w3.org/2000/svg" version="1.1" viewBox="0 0 166 166">
  <!-- Generator: Adobe Illustrator 29.5.1, SVG Export Plug-In . SVG Version: 2.1.0 Build 141)  -->
  <defs>
    <style>
      .st0 {
        fill: #ff2d20;
      }

      .st1 {
        fill: #f19a48;
      }

      .st2 {
        fill: #904a95;
      }

      .st3 {
        fill: #f7da75;
      }

      .st4 {
        fill: #6e98d0;
      }

      .st5 {
        fill: #5cb9e9;
        opacity: .8;
      }

      .st6 {
        fill: #a3c85e;
      }

      .st7 {
        fill: #5461a9;
      }
    </style>
  </defs>
  <path class="st0" d="M91.4,145.6c0,4.4-3.6,7.9-7.9,7.9s-7.9-3.6-7.9-7.9,3.6-7.9,7.9-7.9,7.9,3.6,7.9,7.9Z"/>
  <path class="st1" d="M91.4,125c0,4.4-3.6,7.9-7.9,7.9s-7.9-3.6-7.9-7.9,3.6-7.9,7.9-7.9,7.9,3.6,7.9,7.9Z"/>
  <path class="st3" d="M91.4,104.3c0,4.4-3.6,7.9-7.9,7.9s-7.9-3.6-7.9-7.9,3.6-7.9,7.9-7.9,7.9,3.6,7.9,7.9Z"/>
  <path class="st6" d="M91.4,83.7c0,4.4-3.6,7.9-7.9,7.9s-7.9-3.6-7.9-7.9,3.6-7.9,7.9-7.9,7.9,3.6,7.9,7.9Z"/>
  <path class="st4" d="M91.4,63.1c0,4.4-3.6,7.9-7.9,7.9s-7.9-3.6-7.9-7.9,3.6-7.9,7.9-7.9,7.9,3.6,7.9,7.9Z"/>
  <path class="st7" d="M91.4,42.4c0,4.4-3.6,7.9-7.9,7.9s-7.9-3.6-7.9-7.9,3.6-7.9,7.9-7.9,7.9,3.6,7.9,7.9Z"/>
  <path class="st2" d="M91.4,21.7c0,4.4-3.6,7.9-7.9,7.9s-7.9-3.6-7.9-7.9,3.6-7.9,7.9-7.9,7.9,3.6,7.9,7.9Z"/>
  <g>
    <path class="st5" d="M34.8,104.6c-.8-1.7-1.4-3.5-1.8-5.1-.6-.6-1.2-1.2-1.8-1.9-6.6-7.3-8.3-11.3-8.3-11.3,0,0-2.9,13.1,6.8,19.2,1.9,1.2,6.9,4,8.4,4.8-.9-1.5-2.1-3.5-2.2-3.7-.2-.3-.9-1.4-1.1-2ZM39.2,96.3c4.8,7.2,12.6,13.9,17.7,16.2-2.1-4.4-3.9-8.4-5.4-12.6-1.5-1.9-3.2-4.5-5.3-8.2-7.2-12.6-7.3-15.2-7.3-15.2,0,0-5.5,11.1.4,19.8ZM31.8,93.2c-.1-1.3-.2-2.2-.2-2.3,0-.5.3-.9.7-1,.4-.1.9,0,1.2.4l1.3,2c1,1.5,2.2,3.1,3.6,4.7,0,0,0-.1,0-.2,0,0,0-.1-.1-.2v-.2c-2.3-3.3-3.1-6.8-3.1-10-1-1.2-2.2-2.6-3.4-4.4-6.4-9-8.8-18-8.8-18,0,0-4.2,13.5,3.8,23.3,1.9,2.3,3.5,4.3,4.9,5.9ZM43.7,63.8c.3-.2.7-.3,1.1-.1.2,0,.3.2.4.4.1.2.2.3.2.5,0,0,0,1.5.5,3.7,0-4.2.5-8.8,1.3-13.5-.6-4.7-.9-10-.3-16,2.1-21.5,5.3-25.9,5.3-25.9,0,0-11.2,6.1-15,15.5-3.6,9-2.6,28.3,3.3,40.4.7-2.1,1.8-3.8,3.2-4.9ZM45.6,74.2c-1.2-4.6-1.4-8.1-1.4-8.1-3.6,3-5.3,10.7-.1,20.1,2.1,3.8,4.2,7.1,6,9.6-1.9-6.1-3.4-12.8-4.5-21.4,0-.1,0-.2,0-.3ZM35.6,82.4c.6-4.2,2.1-7.2,2.2-7.5.2-.4.7-.7,1.1-.6.3,0,.5.2.7.4,0,.1.2.3.2.5,0,0,0,.2.1.5-.2-1.7-.1-3.3,0-4.8-3.1-5.6-6.2-13-7.2-20.9-1.8-14.2-2-15.9-2-16.1,0,.2-11.9,27.1-.4,42.2,1.9,2.5,3.7,4.6,5.2,6.3ZM68.6,125.3c-4.2-14.8-16.9-43.7-16-64.3.9-20.6,3.7-35.1,3.7-35.1,0,0-11.4,31.7-9.3,48.4,2.2,16.7,5.6,26.1,11.7,38.7,6.1,12.6,9.4,23.5,5.3,41.1,0,0,8.8-14,4.7-28.8ZM64.3,137.5c-.6.8-1.3,1.6-2.2,2.3-2.9,2.4-3.4,2.3-3.4,2.3,0,0,3.2,1.7,5.4,2.1.2-2.3.3-4.5.2-6.7ZM61.9,137.8c1-.4,1.7-1,2.3-1.6-.2-2.4-.5-4.7-1-7-1,1.6-2.5,3.2-4.4,3.4-3.8.4-6.9-.6-6.9-.6,0,0,5.3,7.9,10,5.8ZM60.6,120.9c-.9-2.4-2-4.8-3.2-7.3-2.6-1-6.4-2.8-10.5-6.5-7.8-6.8-11.3-11.8-12.6-13.7l-1.3-1.9s.3,13.9,8.7,20.6c7,5.6,14.8,9.1,19,8.8ZM62.9,128c-.5-2-1.1-4-1.9-6-2,.5-5.4.8-10.6-1.3-8.5-3.4-9.2-4.4-9.3-4.5,0,.1,6.4,12.5,12.9,13.3,4.1.5,7.1-.4,8.8-1.6Z"/>
    <path class="st5" d="M131.1,106.6c0,.1-1.3,2.1-2.2,3.7,1.5-.8,6.5-3.6,8.4-4.8,9.7-6.1,6.8-19.2,6.8-19.2,0,0-1.7,4-8.3,11.3-.6.7-1.2,1.3-1.8,1.9-.4,1.6-1,3.4-1.8,5.1-.3.7-1,1.7-1.1,2ZM128.2,76.5s-.1,2.6-7.3,15.2c-2.1,3.7-3.9,6.3-5.4,8.2-1.5,4.2-3.3,8.2-5.4,12.6,5.1-2.3,12.9-9,17.7-16.2,5.9-8.7.4-19.8.4-19.8ZM140.1,87.3c8-9.8,3.8-23.3,3.8-23.3,0,0-2.4,9.1-8.8,18-1.3,1.8-2.4,3.2-3.4,4.4,0,3.2-.8,6.7-3,10v.2c-.2,0-.2.1-.2.2,0,0,0,.1,0,.2,1.4-1.6,2.6-3.2,3.6-4.7l1.3-2c.3-.4.7-.5,1.2-.4.4.1.7.6.7,1,0,.1,0,1-.2,2.3,1.4-1.6,3-3.6,4.9-5.9ZM126.5,68.8c5.9-12.1,6.9-31.4,3.3-40.4-3.8-9.4-15-15.5-15-15.5,0,0,3.2,4.3,5.3,25.9.6,6,.4,11.3-.3,16,.8,4.7,1.3,9.4,1.3,13.5.4-2.2.5-3.7.5-3.7,0-.2,0-.4.2-.5.1-.2.3-.3.4-.4.4-.2.8,0,1.1.1,1.4,1.1,2.5,2.8,3.2,4.9ZM121.4,74.5c-1.1,8.6-2.6,15.3-4.5,21.4,1.8-2.6,3.9-5.9,6-9.6,5.2-9.4,3.5-17.2-.1-20.1,0,0-.2,3.5-1.4,8.1,0,.1,0,.2,0,.3ZM136.6,76.1c11.5-15.1-.3-42-.4-42.2,0,.2-.2,1.9-2,16.1-1,7.9-4.2,15.3-7.2,20.9.2,1.5.3,3.1.1,4.8,0-.3.1-.4.1-.5,0-.2,0-.4.2-.5.1-.2.4-.4.7-.4.5,0,.9.2,1.1.6.1.2,1.6,3.3,2.2,7.5,1.6-1.7,3.3-3.8,5.2-6.3ZM103.1,154.1c-4.1-17.5-.8-28.5,5.3-41.1,6.1-12.6,9.5-22,11.7-38.7,2.2-16.7-9.3-48.4-9.3-48.4,0,0,2.8,14.5,3.7,35.1.9,20.6-11.8,49.5-16,64.3-4.2,14.8,4.7,28.8,4.7,28.8ZM102.8,144.2c2.3-.4,5.4-2.1,5.4-2.1,0,0-.5.1-3.4-2.3-.9-.7-1.6-1.6-2.2-2.3,0,2.1,0,4.4.2,6.7ZM115.1,132s-3.1,1-6.9.6c-1.9-.2-3.4-1.8-4.4-3.4-.5,2.3-.9,4.6-1,7,.6.6,1.4,1.1,2.3,1.6,4.7,2.1,10-5.8,10-5.8ZM125.4,112.1c8.4-6.7,8.7-20.6,8.7-20.6l-1.3,1.9c-1.3,1.9-4.9,6.9-12.6,13.7-4.2,3.7-7.9,5.5-10.5,6.5-1.2,2.5-2.3,4.9-3.2,7.3,4.2.4,12-3.2,19-8.8ZM112.9,129.6c6.5-.8,12.9-13.2,12.9-13.3,0,0-.7,1.1-9.3,4.5-5.1,2-8.6,1.8-10.6,1.3-.7,2-1.4,4-1.9,6,1.8,1.2,4.7,2.1,8.8,1.6Z"/>
  </g>
</svg>